<svg xmlns="http://www.w3.org/2000/svg" viewBox="0 0 230 210">
<path d="M 185 159 L 185 160 L 184 161 L 184 162 L 183 163 L 183 164 L 182 165 L 182 167 L 181 168 L 181 169 L 180 170 L 180 171 L 179 172 L 179 173 L 181 173 L 181 172 L 183 170 L 188 170 L 190 172 L 190 173 L 191 173 L 191 170 L 190 169 L 190 168 L 189 167 L 189 166 L 188 165 L 188 164 L 187 163 L 187 161 L 186 160 L 186 159 Z" fill="black"/>
<path d="M 149 159 L 149 173 L 150 173 L 151 172 L 151 160 L 150 159 Z" fill="black"/>
<path d="M 127 159 L 127 160 L 126 161 L 126 166 L 125 167 L 125 171 L 124 172 L 124 173 L 126 173 L 126 171 L 127 170 L 127 166 L 128 165 L 129 166 L 129 168 L 130 169 L 130 170 L 131 171 L 131 173 L 132 173 L 133 172 L 133 170 L 134 169 L 134 168 L 135 167 L 136 167 L 137 168 L 137 173 L 139 173 L 139 169 L 138 168 L 138 164 L 137 163 L 137 159 L 136 159 L 136 160 L 135 161 L 135 163 L 134 164 L 134 165 L 133 166 L 133 167 L 132 168 L 130 166 L 130 165 L 129 164 L 129 162 L 128 161 L 128 160 Z" fill="black"/>
<path d="M 110 159 L 110 160 L 109 161 L 109 162 L 108 163 L 108 164 L 107 165 L 107 167 L 106 168 L 106 169 L 105 170 L 105 171 L 104 172 L 104 173 L 106 173 L 106 172 L 108 170 L 113 170 L 115 172 L 115 173 L 117 173 L 117 172 L 116 171 L 116 170 L 115 169 L 115 168 L 114 167 L 114 166 L 113 165 L 113 164 L 112 163 L 112 161 L 111 160 L 111 159 Z" fill="black"/>
<path d="M 87 159 L 87 173 L 88 173 L 88 169 L 89 168 L 91 168 L 93 170 L 93 171 L 94 172 L 94 173 L 96 173 L 96 172 L 95 171 L 95 170 L 94 169 L 94 168 L 95 167 L 95 166 L 96 165 L 96 162 L 95 161 L 95 160 L 93 160 L 92 159 Z" fill="black"/>
<path d="M 69 159 L 68 160 L 68 172 L 69 173 L 77 173 L 77 172 L 76 171 L 71 171 L 70 170 L 70 168 L 71 167 L 76 167 L 76 165 L 71 165 L 70 164 L 70 162 L 71 161 L 77 161 L 77 160 L 76 159 Z" fill="black"/>
<path d="M 53 159 L 52 160 L 51 160 L 48 163 L 48 169 L 49 170 L 49 171 L 50 172 L 51 172 L 52 173 L 57 173 L 58 172 L 59 172 L 59 170 L 58 170 L 57 171 L 52 171 L 50 169 L 50 164 L 53 161 L 56 161 L 57 162 L 59 162 L 59 161 L 58 160 L 57 160 L 56 159 Z" fill="black"/>
<path d="M 166 158 L 164 160 L 163 160 L 161 162 L 161 163 L 160 164 L 160 169 L 164 173 L 169 173 L 170 172 L 171 172 L 172 171 L 171 170 L 170 170 L 169 171 L 165 171 L 162 168 L 162 164 L 165 161 L 169 161 L 170 162 L 171 162 L 172 161 L 171 160 L 169 160 L 167 158 Z" fill="black"/>
<path d="M 142 136 L 141 137 L 141 138 L 140 139 L 140 140 L 139 141 L 139 143 L 138 144 L 138 145 L 137 146 L 137 147 L 136 148 L 136 149 L 138 149 L 138 148 L 140 146 L 145 146 L 146 147 L 146 148 L 147 149 L 148 149 L 148 147 L 147 146 L 147 145 L 146 144 L 146 143 L 145 142 L 145 141 L 144 140 L 144 138 L 143 137 L 143 136 Z" fill="black"/>
<path d="M 121 136 L 120 137 L 119 137 L 118 138 L 118 139 L 117 140 L 117 146 L 120 149 L 122 149 L 123 150 L 124 150 L 125 149 L 127 149 L 128 148 L 128 147 L 127 146 L 125 148 L 123 148 L 122 147 L 121 147 L 119 145 L 119 140 L 121 138 L 122 138 L 123 137 L 124 137 L 125 138 L 126 138 L 127 139 L 128 138 L 128 137 L 127 136 Z" fill="black"/>
<path d="M 105 136 L 105 149 L 107 149 L 107 136 Z" fill="black"/>
<path d="M 88 136 L 88 137 L 90 137 L 91 138 L 91 149 L 93 149 L 93 138 L 94 137 L 97 137 L 97 136 Z" fill="black"/>
<path d="M 68 136 L 68 149 L 70 149 L 70 142 L 71 141 L 74 144 L 74 145 L 79 150 L 79 136 L 77 136 L 77 143 L 76 144 L 73 141 L 73 140 L 69 136 Z" fill="black"/>
<path d="M 53 136 L 52 137 L 52 138 L 51 139 L 51 140 L 50 141 L 50 142 L 49 143 L 49 144 L 48 145 L 48 147 L 47 148 L 47 149 L 49 149 L 49 148 L 51 146 L 55 146 L 58 149 L 59 149 L 59 147 L 58 146 L 58 145 L 57 144 L 57 143 L 56 142 L 56 141 L 55 140 L 55 139 L 54 138 L 54 136 Z" fill="black"/>
<path d="M 88 24 L 88 25 L 87 26 L 87 27 L 86 28 L 86 29 L 84 31 L 85 32 L 85 34 L 86 35 L 86 37 L 87 38 L 87 39 L 88 40 L 88 42 L 89 43 L 89 45 L 90 46 L 90 47 L 91 48 L 91 50 L 92 51 L 92 53 L 93 54 L 93 56 L 94 57 L 94 58 L 95 59 L 95 61 L 94 62 L 94 64 L 93 65 L 93 66 L 92 67 L 92 71 L 91 72 L 91 81 L 90 82 L 89 81 L 89 80 L 88 79 L 88 77 L 87 76 L 87 74 L 86 73 L 86 71 L 85 70 L 85 69 L 84 68 L 84 66 L 83 65 L 83 63 L 82 62 L 82 60 L 81 59 L 81 58 L 80 57 L 80 55 L 79 54 L 79 52 L 78 51 L 78 49 L 77 48 L 76 48 L 76 50 L 75 51 L 75 53 L 74 54 L 74 56 L 73 57 L 73 59 L 72 60 L 72 61 L 71 62 L 71 64 L 70 65 L 70 67 L 69 68 L 69 69 L 68 70 L 68 72 L 67 73 L 67 75 L 66 76 L 66 78 L 65 79 L 65 80 L 64 81 L 64 83 L 63 84 L 63 86 L 62 87 L 62 89 L 61 90 L 61 91 L 60 92 L 60 94 L 59 95 L 59 97 L 58 98 L 58 100 L 57 101 L 57 102 L 56 103 L 56 105 L 55 106 L 55 108 L 54 109 L 54 111 L 53 112 L 53 113 L 52 114 L 52 116 L 51 117 L 51 119 L 50 120 L 50 121 L 49 122 L 49 124 L 48 125 L 48 126 L 54 126 L 54 125 L 55 124 L 55 123 L 56 122 L 56 120 L 57 119 L 57 117 L 58 116 L 58 115 L 59 114 L 59 112 L 60 111 L 60 109 L 61 108 L 61 107 L 62 106 L 62 104 L 63 103 L 63 101 L 64 100 L 64 99 L 65 98 L 65 96 L 66 95 L 66 93 L 67 92 L 67 91 L 68 90 L 68 88 L 69 87 L 69 85 L 70 84 L 70 83 L 71 82 L 71 80 L 72 79 L 72 77 L 73 76 L 73 75 L 74 74 L 74 72 L 75 71 L 75 69 L 77 67 L 78 68 L 78 70 L 79 71 L 79 72 L 80 73 L 80 75 L 81 76 L 81 78 L 82 79 L 82 81 L 83 82 L 83 84 L 84 85 L 84 86 L 85 87 L 85 89 L 86 90 L 86 92 L 87 93 L 87 95 L 88 96 L 88 98 L 89 99 L 89 100 L 90 101 L 90 103 L 91 104 L 91 106 L 92 107 L 92 109 L 93 110 L 93 112 L 94 113 L 94 114 L 95 115 L 95 117 L 96 118 L 96 120 L 97 121 L 97 123 L 98 124 L 98 125 L 99 126 L 105 126 L 105 124 L 104 123 L 104 121 L 103 120 L 103 118 L 102 117 L 102 116 L 101 115 L 101 113 L 100 112 L 100 110 L 101 109 L 108 116 L 109 116 L 111 118 L 112 118 L 114 120 L 115 120 L 116 121 L 117 121 L 118 122 L 118 124 L 119 125 L 119 126 L 126 126 L 126 125 L 127 124 L 128 124 L 129 125 L 142 125 L 143 124 L 147 124 L 148 123 L 150 123 L 151 122 L 152 122 L 153 121 L 155 121 L 156 120 L 157 120 L 159 118 L 160 118 L 162 116 L 163 116 L 170 109 L 170 108 L 169 107 L 168 107 L 168 108 L 163 113 L 162 113 L 159 116 L 158 116 L 157 117 L 156 117 L 155 118 L 154 118 L 153 119 L 152 119 L 151 120 L 149 120 L 148 121 L 146 121 L 145 122 L 140 122 L 139 123 L 132 123 L 131 122 L 126 122 L 123 119 L 123 117 L 122 116 L 122 115 L 121 114 L 121 112 L 120 111 L 120 109 L 119 108 L 119 106 L 118 105 L 118 104 L 117 103 L 117 101 L 116 100 L 116 98 L 115 97 L 115 96 L 114 95 L 114 93 L 113 92 L 113 90 L 112 89 L 112 87 L 111 86 L 111 85 L 110 84 L 110 82 L 109 81 L 109 79 L 108 78 L 108 76 L 107 75 L 107 74 L 106 73 L 106 71 L 105 70 L 105 68 L 104 67 L 104 66 L 103 65 L 103 63 L 102 62 L 102 60 L 101 59 L 101 58 L 100 57 L 100 56 L 104 52 L 104 51 L 106 49 L 107 49 L 111 45 L 112 45 L 114 43 L 115 43 L 116 42 L 117 42 L 118 41 L 120 41 L 121 40 L 122 40 L 123 39 L 126 39 L 127 38 L 134 38 L 135 37 L 136 37 L 137 38 L 144 38 L 145 39 L 148 39 L 149 40 L 150 40 L 151 41 L 153 41 L 154 42 L 155 42 L 156 43 L 157 43 L 159 45 L 160 45 L 162 47 L 163 47 L 164 46 L 164 45 L 163 45 L 160 42 L 159 42 L 158 41 L 157 41 L 156 40 L 155 40 L 154 39 L 153 39 L 152 38 L 150 38 L 149 37 L 147 37 L 146 36 L 140 36 L 139 35 L 132 35 L 131 36 L 125 36 L 124 37 L 122 37 L 121 38 L 119 38 L 118 39 L 117 39 L 116 40 L 115 40 L 114 41 L 113 41 L 112 42 L 111 42 L 108 45 L 107 45 L 101 51 L 101 52 L 100 53 L 98 51 L 98 49 L 97 48 L 97 47 L 96 46 L 96 44 L 95 43 L 95 41 L 94 40 L 94 38 L 93 37 L 93 36 L 92 35 L 92 33 L 91 32 L 91 30 L 90 29 L 90 28 L 89 27 L 89 25 Z" fill="black"/>
<path d="M 166 19 L 165 20 L 163 20 L 161 22 L 161 23 L 160 24 L 160 28 L 161 29 L 161 30 L 163 32 L 165 32 L 166 33 L 167 33 L 168 32 L 169 32 L 170 31 L 171 31 L 172 30 L 172 29 L 173 28 L 173 24 L 172 23 L 172 22 L 170 20 L 168 20 L 167 19 Z" fill="black"/>
</svg>